<svg xmlns="http://www.w3.org/2000/svg" viewBox="0 0 48 48"><path d="M39.1 13.1L28.9 2.9c-.6-.6-1.3-.9-2.1-.9H11C9.3 2 8 3.4 8 5v38c0 1.7 1.3 3 3 3h26c1.7 0 3-1.3 3-3V15.2c0-.7-.3-1.5-.9-2.1zm-3.3.9h-7.3c-.3 0-.5-.2-.5-.5V6.2l7.8 7.8zM11 43V5h14v8.5c0 1.9 1.6 3.5 3.5 3.5H37v26H11z"/><path d="M30 19c-2.2 0-4 1.8-4 4 0 1.7 1 3.1 2.5 3.7v1.8h-9v-3.8c1.5-.6 2.5-2 2.5-3.7 0-2.2-1.8-4-4-4s-4 1.8-4 4c0 1.7 1 3.1 2.5 3.7v7.6c-1.5.6-2.5 2-2.5 3.7 0 2.2 1.8 4 4 4s4-1.8 4-4c0-1.7-1-3.1-2.5-3.7v-.8H29c1.4 0 2.5-1.1 2.5-2.5v-2.3c1.5-.6 2.5-2 2.5-3.7 0-2.2-1.8-4-4-4zm-12 1c.6 0 1 .4 1 1s-.4 1-1 1-1-.4-1-1 .4-1 1-1zm0 17c-.6 0-1-.4-1-1s.4-1 1-1 1 .4 1 1-.4 1-1 1zm12-13c-.6 0-1-.4-1-1s.4-1 1-1 1 .4 1 1-.4 1-1 1z"/></svg>